<svg xmlns="http://www.w3.org/2000/svg" viewBox="0 0 24.1 22.2" fill="none">
  <defs>
    <linearGradient id="pulsechain-logo" x1="-340.36" y1="-148.51" x2="-340.39" y2="-148.46"
                    gradientTransform="translate(147087.72 59503.32) scale(432.1 400.65)"
                    gradientUnits="userSpaceOnUse">
      <stop offset="0" stop-color="#00eaff"/>
      <stop offset=".25" stop-color="#0080ff"/>
      <stop offset=".5" stop-color="#8000ff"/>
      <stop offset=".75" stop-color="#e619e6"/>
      <stop offset="1" stop-color="red"/>
    </linearGradient>
  </defs>
  <g>
    <path
      d="M24,12.4c0,.1,0,.2-.1.3l-5.1,8.9c-.2.4-.6.6-1.1.6H6.3c-.4,0-.8-.2-1.1-.6L.1,12.7c0-.1-.1-.2-.1-.3,0-.4.3-.7.7-.7h5.6l1.4,2.4h0c.2.3.6.4.9.2h0c.1-.1.2-.2.3-.4h0l1.8-7,1.6,11.3h0c.1.4.4.6.8.6h0c.3,0,.5-.2.5-.5h0l2.2-8.5.9,1.5h0c.1.2.3.3.6.3h6c.5.1.7.4.7.8ZM17.8,0c.4,0,.8.2,1.1.6l5.1,8.9c0,.1.1.2.1.3,0,.4-.3.7-.7.7h-5.7l-1.4-2.4h0c-.1-.1-.2-.2-.4-.3h0c-.4-.1-.7.1-.8.5h0l-1.8,7-1.6-11.3h0c0-.3-.2-.5-.5-.5-.4-.1-.7.1-.8.5h0l-2.2,8.5-.9-1.5h0c-.1-.2-.3-.3-.6-.3H.7C.3,10.7,0,10.4,0,10,0,9.9,0,9.8.1,9.7L5.2.8c.2-.4.6-.6,1.1-.6h11.5v-.2Z"
      style="fill:url(#pulsechain-logo); fill-rule:evenodd; stroke-width:0px;"/>
  </g>
</svg>
