<?xml version="1.0" encoding="utf-8"?>
<!-- Generator: Adobe Illustrator 28.2.0, SVG Export Plug-In . SVG Version: 6.00 Build 0)  -->
<svg version="1.1" id="Layer_1" xmlns="http://www.w3.org/2000/svg" xmlns:xlink="http://www.w3.org/1999/xlink" x="0px" y="0px"
	 viewBox="0 0 24 24" style="enable-background:new 0 0 24 24;" xml:space="preserve">
<style type="text/css">
	.st0{fill-rule:evenodd;clip-rule:evenodd;fill:url(#SVGID_1_);}
</style>
<g transform="translate(-133.000000, -149.000000)">
	
		<linearGradient id="SVGID_1_" gradientUnits="userSpaceOnUse" x1="-207.3605" y1="1.1877" x2="-207.3897" y2="1.235" gradientTransform="matrix(432.0988 0 0 400.6515 89751.5938 -324.5073)">
		<stop  offset="0" style="stop-color:#00EAFF"/>
		<stop  offset="0.2525" style="stop-color:#0080FF"/>
		<stop  offset="0.4974" style="stop-color:#8000FF"/>
		<stop  offset="0.7499" style="stop-color:#E619E6"/>
		<stop  offset="0.9991" style="stop-color:#FF0000"/>
	</linearGradient>
	<path class="st0" d="M157,162.1c0,0.1,0,0.2-0.1,0.3l-5.1,8.9c-0.2,0.4-0.6,0.6-1.1,0.6h-11.4c-0.4,0-0.8-0.2-1.1-0.6l-5.1-8.9
		c0-0.1-0.1-0.2-0.1-0.3c0-0.4,0.3-0.7,0.7-0.7h5.6l1.4,2.4l0,0c0.2,0.3,0.6,0.4,0.9,0.2l0,0l0,0c0.1-0.1,0.2-0.2,0.3-0.4l0,0l1.8-7
		l1.6,11.3l0,0c0.1,0.4,0.4,0.6,0.8,0.6l0,0l0,0c0.3,0,0.5-0.2,0.5-0.5l0,0l2.2-8.5l0.9,1.5l0,0c0.1,0.2,0.3,0.3,0.6,0.3l0,0h6l0,0
		C156.8,161.4,157,161.7,157,162.1z M150.8,149.7c0.4,0,0.8,0.2,1.1,0.6l5.1,8.9c0,0.1,0.1,0.2,0.1,0.3c0,0.4-0.3,0.7-0.7,0.7h-5.7
		l-1.4-2.4l0,0c-0.1-0.1-0.2-0.2-0.4-0.3l0,0l0,0c-0.4-0.1-0.7,0.1-0.8,0.5l0,0l-1.8,7l-1.6-11.3l0,0c0-0.3-0.2-0.5-0.5-0.5
		c-0.4-0.1-0.7,0.1-0.8,0.5l0,0l-2.2,8.5l-0.9-1.5l0,0c-0.1-0.2-0.3-0.3-0.6-0.3l0,0h-6l0,0c-0.4,0-0.7-0.3-0.7-0.7
		c0-0.1,0-0.2,0.1-0.3l5.1-8.9c0.2-0.4,0.6-0.6,1.1-0.6h11.5V149.7z"/>
</g>
</svg>
